<?xml version="1.0" encoding="iso-8859-1"?>
<!-- Generator: Adobe Illustrator 19.0.0, SVG Export Plug-In . SVG Version: 6.00 Build 0)  -->
<svg version="1.1" id="Layer_1" xmlns="http://www.w3.org/2000/svg" xmlns:xlink="http://www.w3.org/1999/xlink" x="0px" y="0px"
	 viewBox="0 0 512 512" style="enable-background:new 0 0 512 512;" xml:space="preserve">
<rect x="176.825" y="387.959" style="fill:#7E8488;" width="158.351" height="116.124"/>
<path style="fill:#36C63F;" d="M256,203.217c37.899,0,68.619,30.72,68.619,68.619s-30.72,68.619-68.619,68.619V203.217z"/>
<path style="fill:#FFD311;" d="M256,203.217v137.237c-37.899,0-68.619-30.72-68.619-68.619S218.101,203.217,256,203.217z"/>
<path style="fill:#E7ECED;" d="M256,7.918c14.568,0,26.392,11.824,26.392,26.392S270.568,60.701,256,60.701
	s-26.392-11.824-26.392-26.392S241.432,7.918,256,7.918z"/>
<rect x="224.33" y="113.485" style="fill:#595E62;" width="63.34" height="42.227"/>
<path style="fill:#AFB6BB;" d="M387.959,166.268v327.258c0,5.806-4.751,10.557-10.557,10.557h-42.227V387.959H176.825v116.124
	h-42.227c-5.806,0-10.557-4.751-10.557-10.557V166.268c0-5.806,4.751-10.557,10.557-10.557h89.732h63.34h89.732
	C383.208,155.711,387.959,160.462,387.959,166.268z M324.619,271.835c0-37.899-30.72-68.619-68.619-68.619
	s-68.619,30.72-68.619,68.619s30.72,68.619,68.619,68.619S324.619,309.734,324.619,271.835z"/>
<rect x="176.825" y="387.959" style="fill:#6C7175;" width="79.175" height="116.124"/>
<path style="fill:#99A0A4;" d="M256,387.959v-47.505c-37.899,0-68.619-30.72-68.619-68.619s30.72-68.619,68.619-68.619v-47.505
	h-31.67h-89.732c-5.806,0-10.557,4.751-10.557,10.557v327.258c0,5.806,4.751,10.557,10.557,10.557h42.227V387.959H256z"/>
<path style="fill:#00AB4E;" d="M298.227,271.835c0-23.322-18.905-42.227-42.227-42.227v84.454
	C279.322,314.062,298.227,295.156,298.227,271.835z"/>
<path style="fill:#FABD1B;" d="M213.773,271.835c0,23.321,18.905,42.227,42.227,42.227v-84.454
	C232.678,229.608,213.773,248.513,213.773,271.835z"/>
<g>
	<rect x="208.495" y="422.268" style="fill:#FFFFFF;" width="95.01" height="15.835"/>
	<rect x="208.495" y="453.938" style="fill:#FFFFFF;" width="26.392" height="15.835"/>
	<rect x="250.722" y="453.938" style="fill:#FFFFFF;" width="52.784" height="15.835"/>
	<rect x="150.433" y="184.742" style="fill:#FFFFFF;" width="21.113" height="15.835"/>
	<rect x="340.454" y="184.742" style="fill:#FFFFFF;" width="21.113" height="15.835"/>
</g>
<path d="M377.402,147.794h-81.814v-42.227h-31.67V67.686c15.112-3.585,26.392-17.184,26.392-33.377C290.309,15.392,274.919,0,256,0
	c-18.919,0-34.309,15.392-34.309,34.309c0,16.193,11.28,29.792,26.392,33.377v37.881h-31.67v42.227h-81.814
	c-10.186,0-18.474,8.288-18.474,18.474v327.258c0,10.186,8.288,18.474,18.474,18.474h242.804c10.186,0,18.474-8.288,18.474-18.474
	V166.268C395.876,156.082,387.588,147.794,377.402,147.794z M237.526,34.309c0-10.186,8.288-18.474,18.474-18.474
	c10.186,0,18.474,8.288,18.474,18.474S266.186,52.784,256,52.784C245.814,52.784,237.526,44.495,237.526,34.309z M232.247,121.402
	h47.505v26.392h-47.505V121.402z M327.258,496.165H184.742V395.876h142.515V496.165z M380.041,493.526
	c0,1.43-1.209,2.639-2.639,2.639h-34.309V395.876h18.474v-15.835H150.433v15.835h18.474v100.289h-34.309
	c-1.43,0-2.639-1.209-2.639-2.639V166.268c0-1.43,1.209-2.639,2.639-2.639h242.804c1.43,0,2.639,1.209,2.639,2.639V493.526z"/>
<path d="M256,195.299c-42.203,0-76.536,34.334-76.536,76.536s34.334,76.536,76.536,76.536s76.536-34.334,76.536-76.536
	S298.203,195.299,256,195.299z M195.299,271.835c0-30.785,23.042-56.274,52.784-60.168v120.336
	C218.341,328.109,195.299,302.621,195.299,271.835z M263.918,332.003V211.667c29.741,3.893,52.784,29.382,52.784,60.168
	S293.659,328.109,263.918,332.003z"/>
<g>
</g>
<g>
</g>
<g>
</g>
<g>
</g>
<g>
</g>
<g>
</g>
<g>
</g>
<g>
</g>
<g>
</g>
<g>
</g>
<g>
</g>
<g>
</g>
<g>
</g>
<g>
</g>
<g>
</g>
</svg>
