<svg class="svg-icon" style="width: 1em; height: 1em;vertical-align: middle;fill: currentColor;overflow: hidden;" viewBox="0 0 1024 1024" version="1.1" xmlns="http://www.w3.org/2000/svg"><path d="M144 112.8h718c22 0 40 18 40 40V968c0 22-18 40-40 40H144c-22 0-40-18-40-40V152.8c0-22 18-40 40-40z" fill="#A49273" /><path d="M671.6 45.2c0-14 11.6-25.6 25.6-25.6s25.6 11.6 25.6 25.6v149.2c0 14-11.6 25.6-25.6 25.6s-25.6-11.6-25.6-25.6V45.2z m-200-2.8c0-14 11.6-25.6 25.6-25.6 14 0 25.6 11.6 25.6 25.6v152c0 14-11.6 25.6-25.6 25.6-14 0-25.6-11.6-25.6-25.6v-152z m-188.8-0.4c0-14 11.6-25.6 25.6-25.6s25.6 11.6 25.6 25.6v152.4c0 14-11.6 25.6-25.6 25.6s-25.6-11.6-25.6-25.6V42zM289.6 438.8c-14 0-25.6-11.6-25.6-25.6s11.6-25.6 25.6-25.6h426.8c14 0 25.6 11.6 25.6 25.6s-11.6 25.6-25.6 25.6H289.6zM289.6 630c-14 0-25.6-11.6-25.6-25.6 0-14 11.6-25.6 25.6-25.6h426.8c14 0 25.6 11.6 25.6 25.6 0 14-11.6 25.6-25.6 25.6H289.6zM289.6 826.8c-14 0-25.6-11.6-25.6-25.6s11.6-25.6 25.6-25.6h426.8c14 0 25.6 11.6 25.6 25.6s-11.6 25.6-25.6 25.6H289.6z" fill="#D2C7B5" /></svg>